<svg xmlns="http://www.w3.org/2000/svg" width="1440" height="1024" viewBox="0 0 1440 1024" fill="none">
  <rect width="1440" height="1024" fill="#0B1220"/>
  <rect x="80" y="40" width="1280" height="56" rx="14" fill="#0F172A" stroke="#2A3550"/>
  <rect x="100" y="56" width="120" height="24" rx="8" fill="#1A2238"/>
  <rect x="1160" y="52" width="80" height="32" rx="10" fill="#1A2238"/>
  <rect x="1248" y="52" width="112" height="32" rx="10" fill="#1A2238"/>
  <!-- Hero -->
  <rect x="80" y="120" width="1280" height="360" rx="24" fill="#111A2E" stroke="#2A3550"/>
  <text x="120" y="250" fill="#E6E9F2" font-family="Inter, Arial" font-weight="800" font-size="48">Hi — I’m Victor Adoghe</text>
  <text x="120" y="300" fill="#B8C1D6" font-family="Inter, Arial" font-size="22">I build web apps that humans enjoy.</text>
  <rect x="120" y="330" width="170" height="44" rx="12" fill="#7A5CFF"/>
  <rect x="302" y="330" width="210" height="44" rx="12" fill="#1A2238"/>
  <!-- Skills -->
  <text x="80" y="520" fill="#E6E9F2" font-family="Inter, Arial" font-weight="700" font-size="28">Skills</text>
  <g transform="translate(80,540)">
    <rect x="0" y="0" width="280" height="200" rx="16" fill="#0F172A" stroke="#2A3550"/>
    <rect x="300" y="0" width="280" height="200" rx="16" fill="#0F172A" stroke="#2A3550"/>
    <rect x="600" y="0" width="280" height="200" rx="16" fill="#0F172A" stroke="#2A3550"/>
    <rect x="900" y="0" width="280" height="200" rx="16" fill="#0F172A" stroke="#2A3550"/>
  </g>
  <!-- Projects -->
  <text x="80" y="780" fill="#E6E9F2" font-family="Inter, Arial" font-weight="700" font-size="28">Projects</text>
  <g transform="translate(80,800)">
    <rect x="0" y="0" width="380" height="190" rx="16" fill="#0F172A" stroke="#2A3550"/>
    <rect x="410" y="0" width="380" height="190" rx="16" fill="#0F172A" stroke="#2A3550"/>
    <rect x="820" y="0" width="380" height="190" rx="16" fill="#0F172A" stroke="#2A3550"/>
  </g>
</svg>


