<svg xmlns="http://www.w3.org/2000/svg" width="24" height="24" viewBox="0 0 24 24">
	<g fill="none" stroke="#9945dc" stroke-linecap="round" stroke-linejoin="round" stroke-width="1.5">
		<path d="M19 11c0-.818 0-1.57-.152-1.937s-.441-.657-1.02-1.235l-4.736-4.736c-.499-.499-.748-.748-1.058-.896a2 2 0 0 0-.197-.082C11.514 2 11.161 2 10.456 2c-3.245 0-4.868 0-5.967.886a4 4 0 0 0-.603.603C3 4.59 3 6.211 3 9.456V14c0 3.771 0 5.657 1.172 6.828S7.229 22 11 22h8M12 2.5V3c0 2.828 0 4.243.879 5.121C13.757 9 15.172 9 18 9h.5" />
		<path d="M15.5 14h-2a1 1 0 0 0-1 1v.5a1 1 0 0 0 1 1h1a1 1 0 0 1 1 1v.5a1 1 0 0 1-1 1h-2m8.5-5h-2a1 1 0 0 0-1 1v.5a1 1 0 0 0 1 1h1a1 1 0 0 1 1 1v.5a1 1 0 0 1-1 1h-2m-8-3.985C9.955 14.023 9.07 14 8.151 14c-1.416 0-1.651.338-1.651 1.667v1.666C6.5 18.662 6.735 19 8.151 19c.92 0 1.804-.025 1.85-1.017" />
	</g>
</svg>