<svg xmlns="http://www.w3.org/2000/svg" width="20" height="20" viewBox="0 0 24 24" fill="none">
  <path fill-rule="evenodd" clip-rule="evenodd" d="M12 .5a11.5 11.5 0 00-3.64 22.41c.58.11.79-.25.79-.56 0-.27-.01-1.17-.02-2.13-3.2.7-3.88-1.36-3.88-1.36-.53-1.36-1.29-1.73-1.29-1.73-1.06-.72.08-.71.08-.71 1.18.08 1.8 1.21 1.8 1.21 1.04 1.79 2.74 1.27 3.41.98.11-.76.41-1.27.74-1.56-2.55-.29-5.23-1.28-5.23-5.71 0-1.26.45-2.29 1.2-3.1-.12-.29-.52-1.47.11-3.07 0 0 .98-.31 3.21 1.18a11.17 11.17 0 015.84 0c2.23-1.49 3.21-1.18 3.21-1.18.63 1.6.23 2.78.11 3.07.75.81 1.2 1.84 1.2 3.1 0 4.44-2.69 5.42-5.25 5.71.42.36.8 1.07.8 2.16 0 1.56-.01 2.82-.01 3.2 0 .31.21.68.8.56A11.5 11.5 0 0012 .5z" fill="currentColor"/>
</svg>


